<svg width="155" height="20" viewBox="0 0 155 20" fill="none" xmlns="http://www.w3.org/2000/svg">
<g opacity="0.8">
<path d="M17.8059 17.9129H19.8927V19.9549H11.4551V17.8679V11.4722V9.3853H13.542H19.8927V11.4272H13.542H13.4971V11.4722V17.8679V17.9129H13.542H15.6739H15.7189V17.8679V15.736V13.6491H17.8059H19.8927V15.6911H17.8059H17.7609V15.736V17.8679V17.9129H17.8059Z" fill="white" stroke="white" stroke-width="0.089928"/>
<path d="M19.8921 0.857464V2.89941H0.794964V0.857464H19.8921Z" fill="white" stroke="white" stroke-width="0.089928"/>
<path d="M2.88237 7.16357H0.795452V5.12162H2.88237H5.01425H7.14614H9.23306V7.20853V19.9549H7.1911V7.20853V7.16357H7.14614H5.01425H4.96929V7.20853V19.9549H2.92734V7.20853V7.16357H2.88237ZM19.8926 5.12162V7.16357H11.455V5.12162H19.8926Z" fill="white" stroke="white" stroke-width="0.089928"/>
<path d="M30.8048 16.7189V5.5042H25.8413V4.04642H37.2333V5.5042H32.2697V16.7189H30.8048ZM37.8673 16.7189V4.04642H47.1383V5.5042H39.3323V9.2188H44.0553V10.6766H39.3323V15.2613H47.6193V16.7189H37.8673ZM59.2044 12.6751L60.3852 13.6155C59.8458 14.7165 59.1025 15.5668 58.1622 16.1585C57.2256 16.7503 56.1579 17.0481 54.9589 17.0481C53.195 17.0481 51.7373 16.4211 50.5858 15.1711C49.4378 13.921 48.8621 12.3341 48.8621 10.4102C48.8621 8.4822 49.4378 6.8913 50.5894 5.64135C51.7447 4.39122 53.1988 3.7644 54.9553 3.7644C56.0449 3.7644 57.0398 4.01906 57.9363 4.5324C58.8327 5.04575 59.5616 5.7785 60.1227 6.72679L58.8947 7.66719C58.5265 6.91094 57.9909 6.31534 57.2949 5.88811C56.5988 5.46106 55.819 5.24551 54.9589 5.24551C53.6361 5.24551 52.5392 5.73535 51.6718 6.71101C50.8045 7.68684 50.3708 8.921 50.3708 10.4102C50.3708 11.903 50.8045 13.1374 51.6718 14.1092C52.5392 15.081 53.6361 15.5668 54.9589 15.5668C55.8845 15.5668 56.7045 15.32 57.4225 14.8302C58.1403 14.3403 58.7343 13.6232 59.2044 12.6751ZM63.0089 16.7189V4.04642H64.4958V9.05429H71.4491V4.04642H72.914V16.7189H71.4491V10.5119H64.4958V16.7189H63.0089ZM76.4817 16.7189V4.04642H77.2507L84.9 13.5174V4.04642H86.3649V16.7189H85.6178L77.9467 7.24785V16.7189H76.4817ZM95.0417 15.5668C96.3647 15.5668 97.4616 15.081 98.3326 14.1092C99.1998 13.1374 99.6335 11.903 99.6335 10.4102C99.6335 8.91329 99.1998 7.67509 98.3362 6.70329C97.4725 5.7315 96.3719 5.24551 95.0417 5.24551C93.7189 5.24551 92.622 5.73535 91.751 6.71101C90.8838 7.68684 90.4501 8.921 90.4501 10.4102C90.4501 11.903 90.8838 13.1374 91.751 14.1092C92.622 15.081 93.7189 15.5668 95.0417 15.5668ZM95.0381 17.0481C93.2707 17.0481 91.813 16.4211 90.665 15.1711C89.5171 13.921 88.9413 12.3341 88.9413 10.4102C88.9413 8.4822 89.5171 6.8913 90.6724 5.64135C91.8239 4.39122 93.278 3.7644 95.0381 3.7644C96.802 3.7644 98.2633 4.39122 99.4258 5.64907C100.585 6.90305 101.164 8.49009 101.164 10.4102C101.164 12.3341 100.585 13.921 99.4295 15.1711C98.2742 16.4211 96.8093 17.0481 95.0381 17.0481ZM113.143 12.6751L114.324 13.6155C113.784 14.7165 113.041 15.5668 112.101 16.1585C111.164 16.7503 110.096 17.0481 108.897 17.0481C107.133 17.0481 105.676 16.4211 104.524 15.1711C103.376 13.921 102.8 12.3341 102.8 10.4102C102.8 8.4822 103.376 6.8913 104.528 5.64135C105.683 4.39122 107.137 3.7644 108.894 3.7644C109.983 3.7644 110.978 4.01906 111.875 4.5324C112.771 5.04575 113.5 5.7785 114.061 6.72679L112.833 7.66719C112.465 6.91094 111.929 6.31534 111.233 5.88811C110.537 5.46106 109.757 5.24551 108.897 5.24551C107.574 5.24551 106.478 5.73535 105.61 6.71101C104.743 7.68684 104.309 8.921 104.309 10.4102C104.309 11.903 104.743 13.1374 105.61 14.1092C106.478 15.081 107.574 15.5668 108.897 15.5668C109.823 15.5668 110.643 15.32 111.361 14.8302C112.079 14.3403 112.673 13.6232 113.143 12.6751ZM122.108 15.5668C123.431 15.5668 124.527 15.081 125.398 14.1092C126.266 13.1374 126.699 11.903 126.699 10.4102C126.699 8.91329 126.266 7.67509 125.402 6.70329C124.538 5.7315 123.438 5.24551 122.108 5.24551C120.785 5.24551 119.688 5.73535 118.817 6.71101C117.95 7.68684 117.516 8.921 117.516 10.4102C117.516 11.903 117.95 13.1374 118.817 14.1092C119.688 15.081 120.785 15.5668 122.108 15.5668ZM122.104 17.0481C120.337 17.0481 118.879 16.4211 117.731 15.1711C116.583 13.921 116.007 12.3341 116.007 10.4102C116.007 8.4822 116.583 6.8913 117.738 5.64135C118.89 4.39122 120.344 3.7644 122.104 3.7644C123.868 3.7644 125.329 4.39122 126.492 5.64907C127.65 6.90305 128.23 8.49009 128.23 10.4102C128.23 12.3341 127.65 13.921 126.495 15.1711C125.34 16.4211 123.875 17.0481 122.104 17.0481ZM132.206 9.68918H137.41C138.15 9.68918 138.711 9.51274 139.09 9.16005C139.473 8.81139 139.662 8.29419 139.662 7.6123C139.662 6.95005 139.473 6.42899 139.09 6.06051C138.711 5.68835 138.175 5.5042 137.483 5.5042H132.206V9.68918ZM130.741 16.7189V4.04642H137.505C138.656 4.04642 139.556 4.36 140.212 4.98296C140.865 5.6061 141.193 6.4681 141.193 7.56915C141.193 8.48605 140.938 9.26984 140.427 9.92419C139.913 10.5785 139.239 10.9861 138.401 11.1468L141.346 16.7189H139.728L136.779 11.1703H132.206V16.7189H130.741ZM145.263 9.68918H150.467C151.207 9.68918 151.768 9.51274 152.147 9.16005C152.53 8.81139 152.719 8.29419 152.719 7.6123C152.719 6.95005 152.53 6.42899 152.147 6.06051C151.768 5.68835 151.232 5.5042 150.54 5.5042H145.263V9.68918ZM143.798 16.7189V4.04642H150.562C151.706 4.04642 152.606 4.35211 153.262 4.9635C153.922 5.5747 154.25 6.41321 154.25 7.47515C154.25 8.5762 153.933 9.4696 153.295 10.1476C152.661 10.8293 151.812 11.1703 150.755 11.1703H145.263V16.7189H143.798Z" fill="white" stroke="white" stroke-width="0.685251" stroke-miterlimit="22.9256"/>
</g>
</svg>
